<?xml version="1.0" encoding="utf-8"?>
<!-- Generator: Adobe Illustrator 20.1.0, SVG Export Plug-In . SVG Version: 6.00 Build 0)  -->
<svg version="1.1" id="Layer_1" xmlns="http://www.w3.org/2000/svg" xmlns:xlink="http://www.w3.org/1999/xlink" x="0px" y="0px"
	 viewBox="0 0 841.9 139.5" style="enable-background:new 0 0 841.9 139.5;" xml:space="preserve">
<style type="text/css">
	.st0{fill-rule:evenodd;clip-rule:evenodd;}
</style>
<path class="st0" d="M842.4,122.3c-0.1,0.4-0.9,0.1-1.3,0.2c-2-1.2,0.7-3.7,2-1.9C843.2,121.4,843.1,122.1,842.4,122.3z"/>
<path class="st0" d="M817.7,122.3c-0.1,0.4-0.9,0.1-1.3,0.2c-2-1.2,0.7-3.7,2-1.9C818.4,121.4,818.3,122.1,817.7,122.3z"/>
<path class="st0" d="M792.9,122.3c-0.1,0.4-0.9,0.1-1.3,0.2c-2-1.2,0.7-3.7,2-1.9C793.7,121.4,793.5,122.1,792.9,122.3z"/>
<path class="st0" d="M768.2,122.3c-0.1,0.4-0.9,0.1-1.3,0.2c-2-1.2,0.7-3.7,2-1.9C768.9,121.4,768.8,122.1,768.2,122.3z"/>
<path class="st0" d="M743.4,122.3c-0.1,0.4-0.9,0.1-1.3,0.2c-2-1.2,0.7-3.7,2-1.9C744.1,121.4,744,122.1,743.4,122.3z"/>
<path class="st0" d="M718.6,122.3c-0.1,0.4-0.9,0.1-1.3,0.2c-2-1.2,0.7-3.7,2-1.9C719.4,121.4,719.3,122.1,718.6,122.3z"/>
<path class="st0" d="M693.9,122.3c-0.1,0.4-0.9,0.1-1.3,0.2c-2-1.2,0.7-3.7,2-1.9C694.6,121.4,694.5,122.1,693.9,122.3z"/>
<path class="st0" d="M669.1,122.3c-0.1,0.4-0.9,0.1-1.3,0.2c-2-1.2,0.7-3.7,2-1.9C669.9,121.4,669.7,122.1,669.1,122.3z"/>
<path class="st0" d="M644.4,122.3c-0.1,0.4-0.9,0.1-1.3,0.2c-2-1.2,0.7-3.7,2-1.9C645.1,121.4,645,122.1,644.4,122.3z"/>
<path class="st0" d="M619.6,122.3c-0.1,0.4-0.9,0.1-1.3,0.2c-2-1.2,0.7-3.7,2-1.9C620.3,121.4,620.2,122.1,619.6,122.3z"/>
<path class="st0" d="M594.8,122.3c-0.1,0.4-0.9,0.1-1.3,0.2c-2-1.2,0.7-3.7,2-1.9C595.6,121.4,595.5,122.1,594.8,122.3z"/>
<path class="st0" d="M570.1,122.3c-0.1,0.4-0.9,0.1-1.3,0.2c-2-1.2,0.7-3.7,2-1.9C570.8,121.4,570.7,122.1,570.1,122.3z"/>
<path class="st0" d="M545.3,122.3c-0.1,0.4-0.9,0.1-1.3,0.2c-2-1.2,0.7-3.7,2-1.9C546.1,121.4,545.9,122.1,545.3,122.3z"/>
<path class="st0" d="M520.6,122.3c-0.1,0.4-0.9,0.1-1.3,0.2c-2-1.2,0.7-3.7,2-1.9C521.3,121.4,521.2,122.1,520.6,122.3z"/>
<path class="st0" d="M495.8,122.3c-0.1,0.4-0.9,0.1-1.3,0.2c-2-1.2,0.7-3.7,2-1.9C496.5,121.4,496.4,122.1,495.8,122.3z"/>
<path class="st0" d="M471,122.3c-0.1,0.4-0.9,0.1-1.3,0.2c-2-1.2,0.7-3.7,2-1.9C471.8,121.4,471.7,122.1,471,122.3z"/>
<path class="st0" d="M446.3,122.3c-0.1,0.4-0.9,0.1-1.3,0.2c-2-1.2,0.7-3.7,2-1.9C447,121.4,446.9,122.1,446.3,122.3z"/>
<path class="st0" d="M421.5,122.3c-0.1,0.4-0.9,0.1-1.3,0.2c-2-1.2,0.7-3.7,2-1.9C422.3,121.4,422.1,122.1,421.5,122.3z"/>
<path class="st0" d="M396.8,122.3c-0.1,0.4-0.9,0.1-1.3,0.2c-2-1.2,0.7-3.7,2-1.9C397.5,121.4,397.4,122.1,396.8,122.3z"/>
<path class="st0" d="M372,122.3c-0.1,0.4-0.9,0.1-1.3,0.2c-2-1.2,0.7-3.7,2-1.9C372.7,121.4,372.6,122.1,372,122.3z"/>
<path class="st0" d="M347.2,122.3c-0.1,0.4-0.9,0.1-1.3,0.2c-2-1.2,0.7-3.7,2-1.9C348,121.4,347.9,122.1,347.2,122.3z"/>
<path class="st0" d="M322.5,122.3c-0.1,0.4-0.9,0.1-1.3,0.2c-2-1.2,0.7-3.7,2-1.9C323.2,121.4,323.1,122.1,322.5,122.3z"/>
<path class="st0" d="M297.7,122.3c-0.1,0.4-0.9,0.1-1.3,0.2c-2-1.2,0.7-3.7,2-1.9C298.5,121.4,298.3,122.1,297.7,122.3z"/>
<path class="st0" d="M273,122.3c-0.1,0.4-0.9,0.1-1.3,0.2c-2-1.2,0.7-3.7,2-1.9C273.7,121.4,273.6,122.1,273,122.3z"/>
<path class="st0" d="M248.2,122.3c-0.1,0.4-0.9,0.1-1.3,0.2c-2-1.2,0.7-3.7,2-1.9C248.9,121.4,248.8,122.1,248.2,122.3z"/>
<path class="st0" d="M223.4,122.3c-0.1,0.4-0.9,0.1-1.3,0.2c-2-1.2,0.7-3.7,2-1.9C224.2,121.4,224.1,122.1,223.4,122.3z"/>
<path class="st0" d="M198.7,122.3c-0.1,0.4-0.9,0.1-1.3,0.2c-2-1.2,0.7-3.7,2-1.9C199.4,121.4,199.3,122.1,198.7,122.3z"/>
<path class="st0" d="M173.9,122.3c-0.1,0.4-0.9,0.1-1.3,0.2c-2-1.2,0.7-3.7,2-1.9C174.7,121.4,174.5,122.1,173.9,122.3z"/>
<path class="st0" d="M149.2,122.3c-0.1,0.4-0.9,0.1-1.3,0.2c-2-1.2,0.7-3.7,2-1.9C149.9,121.4,149.8,122.1,149.2,122.3z"/>
<path class="st0" d="M124.4,122.3c-0.1,0.4-0.9,0.1-1.3,0.2c-2-1.2,0.7-3.7,2-1.9C125.1,121.4,125,122.1,124.4,122.3z"/>
<path class="st0" d="M99.6,122.3c-0.1,0.4-0.9,0.1-1.3,0.2c-2-1.2,0.7-3.7,2-1.9C100.4,121.4,100.3,122.1,99.6,122.3z"/>
<path class="st0" d="M74.9,122.3c-0.1,0.4-0.9,0.1-1.3,0.2c-2-1.2,0.7-3.7,2-1.9C75.6,121.4,75.5,122.1,74.9,122.3z"/>
<path class="st0" d="M50.1,122.3c-0.1,0.4-0.9,0.1-1.3,0.2c-2-1.2,0.7-3.7,2-1.9C50.9,121.4,50.7,122.1,50.1,122.3z"/>
<path class="st0" d="M25.4,122.3c-0.1,0.4-0.9,0.1-1.3,0.2c-2-1.2,0.7-3.7,2-1.9C26.1,121.4,26,122.1,25.4,122.3z"/>
<path class="st0" d="M0.6,122.1c-0.1,0.4-0.9,0.1-1.3,0.2c-2-1.2,0.7-3.7,2-1.9C1.3,121.3,1.2,121.9,0.6,122.1z"/>
<path class="st0" d="M829.9,110.7c-1.4,0.5-1.9-0.2-2-1.1C827.6,106,833.3,109.6,829.9,110.7z"/>
<path class="st0" d="M805.1,110.7c-1.4,0.5-1.9-0.2-2-1.1C802.8,106,808.5,109.6,805.1,110.7z"/>
<path class="st0" d="M780.4,110.7c-1.4,0.5-1.9-0.2-2-1.1C778.1,106,783.8,109.6,780.4,110.7z"/>
<path class="st0" d="M755.6,110.7c-1.4,0.5-1.9-0.2-2-1.1C753.3,106,759,109.6,755.6,110.7z"/>
<path class="st0" d="M730.8,110.7c-1.4,0.5-1.9-0.2-2-1.1C728.6,106,734.3,109.6,730.8,110.7z"/>
<path class="st0" d="M706.1,110.7c-1.4,0.5-1.9-0.2-2-1.1C703.8,106,709.5,109.6,706.1,110.7z"/>
<path class="st0" d="M681.3,110.7c-1.4,0.5-1.9-0.2-2-1.1C679,106,684.7,109.6,681.3,110.7z"/>
<path class="st0" d="M656.6,110.7c-1.4,0.5-1.9-0.2-2-1.1C654.3,106,660,109.6,656.6,110.7z"/>
<path class="st0" d="M631.8,110.7c-1.4,0.5-1.9-0.2-2-1.1C629.5,106,635.2,109.6,631.8,110.7z"/>
<path class="st0" d="M607,110.7c-1.4,0.5-1.9-0.2-2-1.1C604.8,106,610.5,109.6,607,110.7z"/>
<path class="st0" d="M582.3,110.7c-1.4,0.5-1.9-0.2-2-1.1C580,106,585.7,109.6,582.3,110.7z"/>
<path class="st0" d="M557.5,110.7c-1.4,0.5-1.9-0.2-2-1.1C555.2,106,560.9,109.6,557.5,110.7z"/>
<path class="st0" d="M532.8,110.7c-1.4,0.5-1.9-0.2-2-1.1C530.5,106,536.2,109.6,532.8,110.7z"/>
<path class="st0" d="M508,110.7c-1.4,0.5-1.9-0.2-2-1.1C505.7,106,511.4,109.6,508,110.7z"/>
<path class="st0" d="M483.2,110.7c-1.4,0.5-1.9-0.2-2-1.1C481,106,486.7,109.6,483.2,110.7z"/>
<path class="st0" d="M458.5,110.7c-1.4,0.5-1.9-0.2-2-1.1C456.2,106,461.9,109.6,458.5,110.7z"/>
<path class="st0" d="M433.7,110.7c-1.4,0.5-1.9-0.2-2-1.1C431.4,106,437.1,109.6,433.7,110.7z"/>
<path class="st0" d="M409,110.7c-1.4,0.5-1.9-0.2-2-1.1C406.7,106,412.4,109.6,409,110.7z"/>
<path class="st0" d="M384.2,110.7c-1.4,0.5-1.9-0.2-2-1.1C381.9,106,387.6,109.6,384.2,110.7z"/>
<path class="st0" d="M359.4,110.7c-1.4,0.5-1.9-0.2-2-1.1C357.2,106,362.9,109.6,359.4,110.7z"/>
<path class="st0" d="M334.7,110.7c-1.4,0.5-1.9-0.2-2-1.1C332.4,106,338.1,109.6,334.7,110.7z"/>
<path class="st0" d="M309.9,110.7c-1.4,0.5-1.9-0.2-2-1.1C307.6,106,313.3,109.6,309.9,110.7z"/>
<path class="st0" d="M285.2,110.7c-1.4,0.5-1.9-0.2-2-1.1C282.9,106,288.6,109.6,285.2,110.7z"/>
<path class="st0" d="M260.4,110.7c-1.4,0.5-1.9-0.2-2-1.1C258.1,106,263.8,109.6,260.4,110.7z"/>
<path class="st0" d="M235.6,110.7c-1.4,0.5-1.9-0.2-2-1.1C233.4,106,239.1,109.6,235.6,110.7z"/>
<path class="st0" d="M210.9,110.7c-1.4,0.5-1.9-0.2-2-1.1C208.6,106,214.3,109.6,210.9,110.7z"/>
<path class="st0" d="M186.1,110.7c-1.4,0.5-1.9-0.2-2-1.1C183.8,106,189.5,109.6,186.1,110.7z"/>
<path class="st0" d="M161.4,110.7c-1.4,0.5-1.9-0.2-2-1.1C159.1,106,164.8,109.6,161.4,110.7z"/>
<path class="st0" d="M136.6,110.7c-1.4,0.5-1.9-0.2-2-1.1C134.3,106,140,109.6,136.6,110.7z"/>
<path class="st0" d="M111.8,110.7c-1.4,0.5-1.9-0.2-2-1.1C109.5,106,115.3,109.6,111.8,110.7z"/>
<path class="st0" d="M87.1,110.7c-1.4,0.5-1.9-0.2-2-1.1C84.8,106,90.5,109.6,87.1,110.7z"/>
<path class="st0" d="M62.3,110.7c-1.4,0.5-1.9-0.2-2-1.1C60,106,65.7,109.6,62.3,110.7z"/>
<path class="st0" d="M37.6,110.7c-1.4,0.5-1.9-0.2-2-1.1C35.3,106,41,109.6,37.6,110.7z"/>
<path class="st0" d="M12.8,110.6c-1.4,0.5-1.9-0.2-2-1.1C10.5,105.9,16.2,109.4,12.8,110.6z"/>
<path class="st0" d="M842.3,99.2c-1.4,0.4-2.1-0.3-2.1-1.2c-0.2-2.1,3.1-2.5,3.3-0.3C843.5,98.4,843.1,98.9,842.3,99.2z"/>
<path class="st0" d="M817.5,99.2c-1.4,0.4-2.1-0.3-2.1-1.2c-0.2-2.1,3.1-2.5,3.3-0.3C818.7,98.4,818.4,98.9,817.5,99.2z"/>
<path class="st0" d="M792.7,99.2c-1.4,0.4-2.1-0.3-2.1-1.2c-0.2-2.1,3.1-2.5,3.3-0.3C794,98.4,793.6,98.9,792.7,99.2z"/>
<path class="st0" d="M768,99.2c-1.5,0.4-2.1-0.3-2.1-1.2c-0.2-2.1,3.1-2.5,3.3-0.3C769.2,98.4,768.9,98.9,768,99.2z"/>
<path class="st0" d="M743.2,99.2c-1.4,0.4-2.1-0.3-2.1-1.2c-0.2-2.1,3.1-2.5,3.3-0.3C744.4,98.4,744.1,98.9,743.2,99.2z"/>
<path class="st0" d="M718.5,99.2c-1.4,0.4-2.1-0.3-2.1-1.2c-0.2-2.1,3.1-2.5,3.3-0.3C719.7,98.4,719.3,98.9,718.5,99.2z"/>
<path class="st0" d="M693.7,99.2c-1.4,0.4-2.1-0.3-2.1-1.2c-0.2-2.1,3.1-2.5,3.3-0.3C694.9,98.4,694.6,98.9,693.7,99.2z"/>
<path class="st0" d="M668.9,99.2c-1.4,0.4-2.1-0.3-2.1-1.2c-0.2-2.1,3.1-2.5,3.3-0.3C670.2,98.4,669.8,98.9,668.9,99.2z"/>
<path class="st0" d="M644.2,99.2c-1.4,0.4-2.1-0.3-2.1-1.2c-0.2-2.1,3.1-2.5,3.3-0.3C645.4,98.4,645.1,98.9,644.2,99.2z"/>
<path class="st0" d="M619.4,99.2c-1.4,0.4-2.1-0.3-2.1-1.2c-0.2-2.1,3.1-2.5,3.3-0.3C620.7,98.4,620.3,98.9,619.4,99.2z"/>
<path class="st0" d="M594.7,99.2c-1.4,0.4-2.1-0.3-2.1-1.2c-0.2-2.1,3.1-2.5,3.3-0.3C595.9,98.4,595.5,98.9,594.7,99.2z"/>
<path class="st0" d="M569.9,99.2c-1.4,0.4-2.1-0.3-2.1-1.2c-0.2-2.1,3.1-2.5,3.3-0.3C571.1,98.4,570.8,98.9,569.9,99.2z"/>
<path class="st0" d="M545.1,99.2c-1.4,0.4-2.1-0.3-2.1-1.2c-0.2-2.1,3.1-2.5,3.3-0.3C546.4,98.4,546,98.9,545.1,99.2z"/>
<path class="st0" d="M520.4,99.2c-1.5,0.4-2.1-0.3-2.1-1.2c-0.2-2.1,3.1-2.5,3.3-0.3C521.6,98.4,521.3,98.9,520.4,99.2z"/>
<path class="st0" d="M495.6,99.2c-1.4,0.4-2.1-0.3-2.1-1.2c-0.2-2.1,3.1-2.5,3.3-0.3C496.8,98.4,496.5,98.9,495.6,99.2z"/>
<path class="st0" d="M470.9,99.2c-1.4,0.4-2.1-0.3-2.1-1.2c-0.2-2.1,3.1-2.5,3.3-0.3C472.1,98.4,471.7,98.9,470.9,99.2z"/>
<path class="st0" d="M446.1,99.2c-1.4,0.4-2.1-0.3-2.1-1.2c-0.2-2.1,3.1-2.5,3.3-0.3C447.3,98.4,447,98.9,446.1,99.2z"/>
<path class="st0" d="M421.3,99.2c-1.4,0.4-2.1-0.3-2.1-1.2c-0.2-2.1,3.1-2.5,3.3-0.3C422.6,98.4,422.2,98.9,421.3,99.2z"/>
<path class="st0" d="M396.6,99.2c-1.4,0.4-2.1-0.3-2.1-1.2c-0.2-2.1,3.1-2.5,3.3-0.3C397.8,98.4,397.5,98.9,396.6,99.2z"/>
<path class="st0" d="M371.8,99.2c-1.4,0.4-2.1-0.3-2.1-1.2c-0.2-2.1,3.1-2.5,3.3-0.3C373,98.4,372.7,98.9,371.8,99.2z"/>
<path class="st0" d="M347.1,99.2c-1.4,0.4-2.1-0.3-2.1-1.2c-0.2-2.1,3.1-2.5,3.3-0.3C348.3,98.4,347.9,98.9,347.1,99.2z"/>
<path class="st0" d="M322.3,99.2c-1.4,0.4-2.1-0.3-2.1-1.2c-0.2-2.1,3.1-2.5,3.3-0.3C323.5,98.4,323.2,98.9,322.3,99.2z"/>
<path class="st0" d="M297.5,99.2c-1.4,0.4-2.1-0.3-2.1-1.2c-0.2-2.1,3.1-2.5,3.3-0.3C298.8,98.4,298.4,98.9,297.5,99.2z"/>
<path class="st0" d="M272.8,99.2c-1.4,0.4-2.1-0.3-2.1-1.2c-0.2-2.1,3.1-2.5,3.3-0.3C274,98.4,273.7,98.9,272.8,99.2z"/>
<path class="st0" d="M248,99.2c-1.4,0.4-2.1-0.3-2.1-1.2c-0.2-2.1,3.1-2.5,3.3-0.3C249.2,98.4,248.9,98.9,248,99.2z"/>
<path class="st0" d="M223.3,99.2c-1.4,0.4-2.1-0.3-2.1-1.2c-0.2-2.1,3.1-2.5,3.3-0.3C224.5,98.4,224.1,98.9,223.3,99.2z"/>
<path class="st0" d="M198.5,99.2c-1.4,0.4-2.1-0.3-2.1-1.2c-0.2-2.1,3.1-2.5,3.3-0.3C199.7,98.4,199.4,98.9,198.5,99.2z"/>
<path class="st0" d="M173.7,99.2c-1.4,0.4-2.1-0.3-2.1-1.2c-0.2-2.1,3.1-2.5,3.3-0.3C175,98.4,174.6,98.9,173.7,99.2z"/>
<path class="st0" d="M149,99.2c-1.4,0.4-2.1-0.3-2.1-1.2c-0.2-2.1,3.1-2.5,3.3-0.3C150.2,98.4,149.9,98.9,149,99.2z"/>
<path class="st0" d="M124.2,99.2c-1.4,0.4-2.1-0.3-2.1-1.2c-0.2-2.1,3.1-2.5,3.3-0.3C125.4,98.4,125.1,98.9,124.2,99.2z"/>
<path class="st0" d="M99.5,99.2c-1.4,0.4-2.1-0.3-2.1-1.2c-0.2-2.1,3.1-2.5,3.3-0.3C100.7,98.4,100.3,98.9,99.5,99.2z"/>
<path class="st0" d="M74.7,99.2c-1.4,0.4-2.1-0.3-2.1-1.2c-0.2-2.1,3.1-2.5,3.3-0.3C75.9,98.4,75.6,98.9,74.7,99.2z"/>
<path class="st0" d="M49.9,99.2c-1.4,0.4-2.1-0.3-2.1-1.2c-0.2-2.1,3.1-2.5,3.3-0.3C51.2,98.4,50.8,98.9,49.9,99.2z"/>
<path class="st0" d="M25.2,99.2c-1.4,0.4-2.1-0.3-2.1-1.2c-0.2-2.1,3.1-2.5,3.3-0.3C26.4,98.4,26.1,98.9,25.2,99.2z"/>
<path class="st0" d="M0.4,99c-1.4,0.4-2.1-0.3-2.1-1.2c-0.2-2,3.1-2.5,3.3-0.3C1.6,98.3,1.3,98.7,0.4,99z"/>
<path class="st0" d="M829.6,87.6c-1.9,0.2-2.6-2.4-1-3.1C830.8,83.5,832.5,87.2,829.6,87.6z"/>
<path class="st0" d="M804.8,87.6c-1.9,0.2-2.6-2.4-1-3.1C806,83.5,807.8,87.2,804.8,87.6z"/>
<path class="st0" d="M780,87.6c-1.9,0.2-2.6-2.4-1-3.1C781.3,83.5,783,87.2,780,87.6z"/>
<path class="st0" d="M755.3,87.6c-1.9,0.2-2.6-2.4-1-3.1C756.5,83.5,758.3,87.2,755.3,87.6z"/>
<path class="st0" d="M730.5,87.6c-1.9,0.2-2.6-2.4-1-3.1C731.7,83.5,733.5,87.2,730.5,87.6z"/>
<path class="st0" d="M705.8,87.6c-1.9,0.2-2.6-2.4-1-3.1C707,83.5,708.7,87.2,705.8,87.6z"/>
<path class="st0" d="M681,87.6c-1.9,0.2-2.6-2.4-1-3.1C682.2,83.5,684,87.2,681,87.6z"/>
<path class="st0" d="M656.2,87.6c-1.9,0.2-2.6-2.4-1-3.1C657.5,83.5,659.2,87.2,656.2,87.6z"/>
<path class="st0" d="M631.5,87.6c-1.9,0.2-2.6-2.4-1-3.1C632.7,83.5,634.5,87.2,631.5,87.6z"/>
<path class="st0" d="M606.7,87.6c-1.9,0.2-2.6-2.4-1-3.1C607.9,83.5,609.7,87.2,606.7,87.6z"/>
<path class="st0" d="M582,87.6c-1.9,0.2-2.6-2.4-1-3.1C583.2,83.5,584.9,87.2,582,87.6z"/>
<path class="st0" d="M557.2,87.6c-1.9,0.2-2.6-2.4-1-3.1C558.4,83.5,560.2,87.2,557.2,87.6z"/>
<path class="st0" d="M532.4,87.6c-1.9,0.2-2.6-2.4-1-3.1C533.7,83.5,535.4,87.2,532.4,87.6z"/>
<path class="st0" d="M507.7,87.6c-1.9,0.2-2.6-2.4-1-3.1C508.9,83.5,510.7,87.2,507.7,87.6z"/>
<path class="st0" d="M482.9,87.6c-1.9,0.2-2.6-2.4-1-3.1C484.1,83.5,485.9,87.2,482.9,87.6z"/>
<path class="st0" d="M458.2,87.6c-1.9,0.2-2.6-2.4-1-3.1C459.4,83.5,461.1,87.2,458.2,87.6z"/>
<path class="st0" d="M433.4,87.6c-1.9,0.2-2.6-2.4-1-3.1C434.6,83.5,436.4,87.2,433.4,87.6z"/>
<path class="st0" d="M408.6,87.6c-1.9,0.2-2.6-2.4-1-3.1C409.9,83.5,411.6,87.2,408.6,87.6z"/>
<path class="st0" d="M383.9,87.6c-1.9,0.2-2.6-2.4-1-3.1C385.1,83.5,386.9,87.2,383.9,87.6z"/>
<path class="st0" d="M359.1,87.6c-1.9,0.2-2.6-2.4-1-3.1C360.3,83.5,362.1,87.2,359.1,87.6z"/>
<path class="st0" d="M334.4,87.6c-1.9,0.2-2.6-2.4-1-3.1C335.6,83.5,337.3,87.2,334.4,87.6z"/>
<path class="st0" d="M309.6,87.6c-1.9,0.2-2.6-2.4-1-3.1C310.8,83.5,312.6,87.2,309.6,87.6z"/>
<path class="st0" d="M284.8,87.6c-1.9,0.2-2.6-2.4-1-3.1C286.1,83.5,287.8,87.2,284.8,87.6z"/>
<path class="st0" d="M260.1,87.6c-1.9,0.2-2.6-2.4-1-3.1C261.3,83.5,263.1,87.2,260.1,87.6z"/>
<path class="st0" d="M235.3,87.6c-1.9,0.2-2.6-2.4-1-3.1C236.5,83.5,238.3,87.2,235.3,87.6z"/>
<path class="st0" d="M210.6,87.6c-1.9,0.2-2.6-2.4-1-3.1C211.8,83.5,213.5,87.2,210.6,87.6z"/>
<path class="st0" d="M185.8,87.6c-1.9,0.2-2.6-2.4-1-3.1C187,83.5,188.8,87.2,185.8,87.6z"/>
<path class="st0" d="M161,87.6c-1.9,0.2-2.6-2.4-1-3.1C162.3,83.5,164,87.2,161,87.6z"/>
<path class="st0" d="M136.3,87.6c-1.9,0.2-2.6-2.4-1-3.1C137.5,83.5,139.3,87.2,136.3,87.6z"/>
<path class="st0" d="M111.5,87.6c-1.9,0.2-2.6-2.4-1-3.1C112.7,83.5,114.5,87.2,111.5,87.6z"/>
<path class="st0" d="M86.8,87.6c-1.9,0.2-2.6-2.4-1-3.1C88,83.5,89.7,87.2,86.8,87.6z"/>
<path class="st0" d="M62,87.6c-1.9,0.2-2.6-2.4-1-3.1C63.2,83.5,65,87.2,62,87.6z"/>
<path class="st0" d="M37.2,87.6c-1.9,0.2-2.6-2.4-1-3.1C38.5,83.5,40.2,87.2,37.2,87.6z"/>
<path class="st0" d="M12.5,87.4c-1.9,0.2-2.6-2.4-1-3.1C13.7,83.4,15.5,87.1,12.5,87.4z"/>
<path class="st0" d="M842.3,76c-1.4,0.3-2.5-0.4-2.5-1.7c0-2.5,4-2.4,4,0C843.8,74.9,843.5,75.7,842.3,76z"/>
<path class="st0" d="M817.5,76c-1.4,0.3-2.5-0.4-2.5-1.7c0-2.5,4-2.4,4,0C819,74.9,818.8,75.7,817.5,76z"/>
<path class="st0" d="M792.7,76c-1.4,0.3-2.5-0.4-2.5-1.7c0-2.5,4-2.4,4,0C794.2,74.9,794,75.7,792.7,76z"/>
<path class="st0" d="M768,76c-1.4,0.3-2.5-0.4-2.5-1.7c0-2.5,4-2.4,4,0C769.5,74.9,769.3,75.7,768,76z"/>
<path class="st0" d="M743.2,76c-1.4,0.3-2.5-0.4-2.5-1.7c0-2.5,4-2.4,4,0C744.7,74.9,744.5,75.7,743.2,76z"/>
<path class="st0" d="M718.5,76c-1.4,0.3-2.5-0.4-2.5-1.7c0-2.5,4-2.4,4,0C720,74.9,719.7,75.7,718.5,76z"/>
<path class="st0" d="M693.7,76c-1.4,0.3-2.5-0.4-2.5-1.7c0-2.5,4-2.4,4,0C695.2,74.9,695,75.7,693.7,76z"/>
<path class="st0" d="M668.9,76c-1.4,0.3-2.5-0.4-2.5-1.7c0-2.5,4-2.4,4,0C670.4,74.9,670.2,75.7,668.9,76z"/>
<path class="st0" d="M644.2,76c-1.4,0.3-2.5-0.4-2.5-1.7c0-2.5,4-2.4,4,0C645.7,74.9,645.5,75.7,644.2,76z"/>
<path class="st0" d="M619.4,76c-1.4,0.3-2.5-0.4-2.5-1.7c0-2.5,4-2.4,4,0C620.9,74.9,620.7,75.7,619.4,76z"/>
<path class="st0" d="M594.7,76c-1.4,0.3-2.5-0.4-2.5-1.7c0-2.5,4-2.4,4,0C596.2,74.9,595.9,75.7,594.7,76z"/>
<path class="st0" d="M569.9,76c-1.4,0.3-2.5-0.4-2.5-1.7c0-2.5,4-2.4,4,0C571.4,74.9,571.2,75.7,569.9,76z"/>
<path class="st0" d="M545.1,76c-1.4,0.3-2.5-0.4-2.5-1.7c0-2.5,4-2.4,4,0C546.6,74.9,546.4,75.7,545.1,76z"/>
<path class="st0" d="M520.4,76c-1.4,0.3-2.5-0.4-2.5-1.7c0-2.5,4-2.4,4,0C521.9,74.9,521.7,75.7,520.4,76z"/>
<path class="st0" d="M495.6,76c-1.4,0.3-2.5-0.4-2.5-1.7c0-2.5,4-2.4,4,0C497.1,74.9,496.9,75.7,495.6,76z"/>
<path class="st0" d="M470.9,76c-1.4,0.3-2.5-0.4-2.5-1.7c0-2.5,4-2.4,4,0C472.4,74.9,472.1,75.7,470.9,76z"/>
<path class="st0" d="M446.1,76c-1.4,0.3-2.5-0.4-2.5-1.7c0-2.5,4-2.4,4,0C447.6,74.9,447.4,75.7,446.1,76z"/>
<path class="st0" d="M421.3,76c-1.4,0.3-2.5-0.4-2.5-1.7c0-2.5,4-2.4,4,0C422.8,74.9,422.6,75.7,421.3,76z"/>
<path class="st0" d="M396.6,76c-1.4,0.3-2.5-0.4-2.5-1.7c0-2.5,4-2.4,4,0C398.1,74.9,397.9,75.7,396.6,76z"/>
<path class="st0" d="M371.8,76c-1.4,0.3-2.5-0.4-2.5-1.7c0-2.5,4-2.4,4,0C373.3,74.9,373.1,75.7,371.8,76z"/>
<path class="st0" d="M347.1,76c-1.4,0.3-2.5-0.4-2.5-1.7c0-2.5,4-2.4,4,0C348.6,74.9,348.3,75.7,347.1,76z"/>
<path class="st0" d="M322.3,76c-1.4,0.3-2.5-0.4-2.5-1.7c0-2.5,4-2.4,4,0C323.8,74.9,323.6,75.7,322.3,76z"/>
<path class="st0" d="M297.5,76c-1.4,0.3-2.5-0.4-2.5-1.7c0-2.5,4-2.4,4,0C299,74.9,298.8,75.7,297.5,76z"/>
<path class="st0" d="M272.8,76c-1.4,0.3-2.5-0.4-2.5-1.7c0-2.5,4-2.4,4,0C274.3,74.9,274.1,75.7,272.8,76z"/>
<path class="st0" d="M248,76c-1.4,0.3-2.5-0.4-2.5-1.7c0-2.5,4-2.4,4,0C249.5,74.9,249.3,75.7,248,76z"/>
<path class="st0" d="M223.3,76c-1.4,0.3-2.5-0.4-2.5-1.7c0-2.5,4-2.4,4,0C224.8,74.9,224.5,75.7,223.3,76z"/>
<path class="st0" d="M198.5,76c-1.4,0.3-2.5-0.4-2.5-1.7c0-2.5,4-2.4,4,0C200,74.9,199.8,75.7,198.5,76z"/>
<path class="st0" d="M173.7,76c-1.4,0.3-2.5-0.4-2.5-1.7c0-2.5,4-2.4,4,0C175.2,74.9,175,75.7,173.7,76z"/>
<path class="st0" d="M149,76c-1.4,0.3-2.5-0.4-2.5-1.7c0-2.5,4-2.4,4,0C150.5,74.9,150.3,75.7,149,76z"/>
<path class="st0" d="M124.2,76c-1.4,0.3-2.5-0.4-2.5-1.7c0-2.5,4-2.4,4,0C125.7,74.9,125.5,75.7,124.2,76z"/>
<path class="st0" d="M99.5,76c-1.4,0.3-2.5-0.4-2.5-1.7c0-2.5,4-2.4,4,0C101,74.9,100.7,75.7,99.5,76z"/>
<path class="st0" d="M74.7,76c-1.4,0.3-2.5-0.4-2.5-1.7c0-2.5,4-2.4,4,0C76.2,74.9,76,75.7,74.7,76z"/>
<path class="st0" d="M49.9,76c-1.4,0.3-2.5-0.4-2.5-1.7c0-2.5,4-2.4,4,0C51.4,74.9,51.2,75.7,49.9,76z"/>
<path class="st0" d="M25.2,76c-1.4,0.3-2.5-0.4-2.5-1.7c0-2.5,4-2.4,4,0C26.7,74.9,26.5,75.7,25.2,76z"/>
<path class="st0" d="M0.4,75.9C-0.9,76.2-2,75.5-2,74.2c0-2.5,4-2.4,4,0C1.9,74.8,1.7,75.6,0.4,75.9z"/>
<path class="st0" d="M830.2,64.3c-1.3,0.4-2.5,0-2.8-0.9c-1-3.2,5.2-3.9,4,0C831.3,63.7,830.8,64.1,830.2,64.3z"/>
<path class="st0" d="M805.5,64.3c-1.3,0.4-2.5,0-2.8-0.9c-1-3.2,5.2-3.9,4,0C806.5,63.7,806.1,64.1,805.5,64.3z"/>
<path class="st0" d="M780.7,64.3c-1.3,0.4-2.5,0-2.8-0.9c-1-3.2,5.2-3.9,4,0C781.7,63.7,781.3,64.1,780.7,64.3z"/>
<path class="st0" d="M755.9,64.3c-1.3,0.4-2.5,0-2.8-0.9c-1-3.2,5.2-3.9,4,0C757,63.7,756.5,64.1,755.9,64.3z"/>
<path class="st0" d="M731.2,64.3c-1.3,0.4-2.5,0-2.8-0.9c-1-3.2,5.2-3.9,4,0C732.2,63.7,731.8,64.1,731.2,64.3z"/>
<path class="st0" d="M706.4,64.3c-1.3,0.4-2.5,0-2.8-0.9c-1-3.2,5.2-3.9,4,0C707.5,63.7,707,64.1,706.4,64.3z"/>
<path class="st0" d="M681.7,64.3c-1.3,0.4-2.5,0-2.8-0.9c-1-3.2,5.2-3.9,4,0C682.7,63.7,682.3,64.1,681.7,64.3z"/>
<path class="st0" d="M656.9,64.3c-1.3,0.4-2.5,0-2.8-0.9c-1-3.2,5.2-3.9,4,0C657.9,63.7,657.5,64.1,656.9,64.3z"/>
<path class="st0" d="M632.1,64.3c-1.3,0.4-2.5,0-2.8-0.9c-1-3.2,5.2-3.9,4,0C633.2,63.7,632.7,64.1,632.1,64.3z"/>
<path class="st0" d="M607.4,64.3c-1.3,0.4-2.5,0-2.8-0.9c-1-3.2,5.2-3.9,4,0C608.4,63.7,608,64.1,607.4,64.3z"/>
<path class="st0" d="M582.6,64.3c-1.3,0.4-2.5,0-2.8-0.9c-1-3.2,5.2-3.9,4,0C583.7,63.7,583.2,64.1,582.6,64.3z"/>
<path class="st0" d="M557.9,64.3c-1.3,0.4-2.5,0-2.8-0.9c-1-3.2,5.2-3.9,4,0C558.9,63.7,558.5,64.1,557.9,64.3z"/>
<path class="st0" d="M533.1,64.3c-1.3,0.4-2.5,0-2.8-0.9c-1-3.2,5.2-3.9,4,0C534.1,63.7,533.7,64.1,533.1,64.3z"/>
<path class="st0" d="M508.3,64.3c-1.3,0.4-2.5,0-2.8-0.9c-1-3.2,5.2-3.9,4,0C509.4,63.7,508.9,64.1,508.3,64.3z"/>
<path class="st0" d="M483.6,64.3c-1.3,0.4-2.5,0-2.8-0.9c-1-3.2,5.2-3.9,4,0C484.6,63.7,484.2,64.1,483.6,64.3z"/>
<path class="st0" d="M458.8,64.3c-1.2,0.4-2.5,0-2.8-0.9c-1-3.2,5.2-3.9,4,0C459.9,63.7,459.4,64.1,458.8,64.3z"/>
<path class="st0" d="M434.1,64.3c-1.3,0.4-2.5,0-2.8-0.9c-1-3.2,5.2-3.9,4,0C435.1,63.7,434.6,64.1,434.1,64.3z"/>
<path class="st0" d="M409.3,64.3c-1.3,0.4-2.5,0-2.8-0.9c-1-3.2,5.2-3.9,4,0C410.3,63.7,409.9,64.1,409.3,64.3z"/>
<path class="st0" d="M384.5,64.3c-1.3,0.4-2.5,0-2.8-0.9c-1-3.2,5.2-3.9,4,0C385.6,63.7,385.1,64.1,384.5,64.3z"/>
<path class="st0" d="M359.8,64.3c-1.3,0.4-2.5,0-2.8-0.9c-1-3.2,5.2-3.9,4,0C360.8,63.7,360.4,64.1,359.8,64.3z"/>
<path class="st0" d="M335,64.3c-1.3,0.4-2.5,0-2.8-0.9c-1-3.2,5.2-3.9,4,0C336.1,63.7,335.6,64.1,335,64.3z"/>
<path class="st0" d="M310.3,64.3c-1.3,0.4-2.5,0-2.8-0.9c-1-3.2,5.2-3.9,4,0C311.3,63.7,310.8,64.1,310.3,64.3z"/>
<path class="st0" d="M285.5,64.3c-1.3,0.4-2.5,0-2.8-0.9c-1-3.2,5.2-3.9,4,0C286.5,63.7,286.1,64.1,285.5,64.3z"/>
<path class="st0" d="M260.7,64.3c-1.3,0.4-2.5,0-2.8-0.9c-1-3.2,5.2-3.9,4,0C261.8,63.7,261.3,64.1,260.7,64.3z"/>
<path class="st0" d="M236,64.3c-1.3,0.4-2.5,0-2.8-0.9c-1-3.2,5.2-3.9,4,0C237,63.7,236.6,64.1,236,64.3z"/>
<path class="st0" d="M211.2,64.3c-1.3,0.4-2.5,0-2.8-0.9c-1-3.2,5.2-3.9,4,0C212.3,63.7,211.8,64.1,211.2,64.3z"/>
<path class="st0" d="M186.5,64.3c-1.3,0.4-2.5,0-2.8-0.9c-1-3.2,5.2-3.9,4,0C187.5,63.7,187,64.1,186.5,64.3z"/>
<path class="st0" d="M161.7,64.3c-1.3,0.4-2.5,0-2.8-0.9c-1-3.2,5.2-3.9,4,0C162.7,63.7,162.3,64.1,161.7,64.3z"/>
<path class="st0" d="M136.9,64.3c-1.3,0.4-2.5,0-2.8-0.9c-1-3.2,5.2-3.9,4,0C138,63.7,137.5,64.1,136.9,64.3z"/>
<path class="st0" d="M112.2,64.3c-1.3,0.4-2.5,0-2.8-0.9c-1-3.2,5.2-3.9,4,0C113.2,63.7,112.8,64.1,112.2,64.3z"/>
<path class="st0" d="M87.4,64.3c-1.2,0.4-2.5,0-2.8-0.9c-1-3.2,5.2-3.9,4,0C88.5,63.7,88,64.1,87.4,64.3z"/>
<path class="st0" d="M62.7,64.3c-1.3,0.4-2.5,0-2.8-0.9c-1-3.2,5.2-3.9,4,0C63.7,63.7,63.2,64.1,62.7,64.3z"/>
<path class="st0" d="M37.9,64.3c-1.3,0.4-2.5,0-2.8-0.9c-1-3.2,5.2-3.9,4,0C38.9,63.7,38.5,64.1,37.9,64.3z"/>
<path class="st0" d="M13.1,64.2c-1.3,0.4-2.5,0-2.8-0.9c-1-3.2,5.2-3.9,4,0C14.2,63.6,13.7,64,13.1,64.2z"/>
<path class="st0" d="M841.9,52.9c-0.6,0.1-1.4-0.1-1.8-0.5c-3.1-3,4.2-5.5,4-1.4C844,51.9,843.5,52.7,841.9,52.9z"/>
<path class="st0" d="M817.2,52.9c-0.6,0.1-1.4-0.1-1.8-0.5c-3.1-3,4.2-5.5,4-1.4C819.3,51.9,818.8,52.7,817.2,52.9z"/>
<path class="st0" d="M792.4,52.9c-0.6,0.1-1.4-0.1-1.8-0.5c-3.1-3,4.2-5.5,4-1.4C794.5,51.9,794,52.7,792.4,52.9z"/>
<path class="st0" d="M767.7,52.9c-0.6,0.1-1.4-0.1-1.8-0.5c-3.1-3,4.2-5.5,4-1.4C769.7,51.9,769.2,52.7,767.7,52.9z"/>
<path class="st0" d="M742.9,52.9c-0.6,0.1-1.4-0.1-1.8-0.5c-3.1-3,4.2-5.5,4-1.4C745,51.9,744.5,52.7,742.9,52.9z"/>
<path class="st0" d="M718.1,52.9c-0.6,0.1-1.4-0.1-1.8-0.5c-3.1-3,4.2-5.5,4-1.4C720.2,51.9,719.7,52.7,718.1,52.9z"/>
<path class="st0" d="M693.4,52.9c-0.6,0.1-1.4-0.1-1.8-0.5c-3.1-3,4.2-5.5,4-1.4C695.5,51.9,695,52.7,693.4,52.9z"/>
<path class="st0" d="M668.6,52.9c-0.6,0.1-1.4-0.1-1.8-0.5c-3.1-3,4.2-5.5,4-1.4C670.7,51.9,670.2,52.7,668.6,52.9z"/>
<path class="st0" d="M643.9,52.9c-0.6,0.1-1.4-0.1-1.8-0.5c-3.1-3,4.2-5.5,4-1.4C645.9,51.9,645.4,52.7,643.9,52.9z"/>
<path class="st0" d="M619.1,52.9c-0.6,0.1-1.4-0.1-1.8-0.5c-3.1-3,4.2-5.5,4-1.4C621.2,51.9,620.7,52.7,619.1,52.9z"/>
<path class="st0" d="M594.3,52.9c-0.6,0.1-1.4-0.1-1.8-0.5c-3.1-3,4.2-5.5,4-1.4C596.4,51.9,595.9,52.7,594.3,52.9z"/>
<path class="st0" d="M569.6,52.9c-0.6,0.1-1.4-0.1-1.8-0.5c-3.1-3,4.2-5.5,4-1.4C571.7,51.9,571.2,52.7,569.6,52.9z"/>
<path class="st0" d="M544.8,52.9c-0.6,0.1-1.4-0.1-1.8-0.5c-3.1-3,4.2-5.5,4-1.4C546.9,51.9,546.4,52.7,544.8,52.9z"/>
<path class="st0" d="M520.1,52.9c-0.6,0.1-1.4-0.1-1.8-0.5c-3.1-3,4.2-5.5,4-1.4C522.1,51.9,521.6,52.7,520.1,52.9z"/>
<path class="st0" d="M495.3,52.9c-0.6,0.1-1.4-0.1-1.8-0.5c-3.1-3,4.2-5.5,4-1.4C497.4,51.9,496.9,52.7,495.3,52.9z"/>
<path class="st0" d="M470.5,52.9c-0.6,0.1-1.4-0.1-1.8-0.5c-3.1-3,4.2-5.5,4-1.4C472.6,51.9,472.1,52.7,470.5,52.9z"/>
<path class="st0" d="M445.8,52.9c-0.6,0.1-1.4-0.1-1.8-0.5c-3.1-3,4.2-5.5,4-1.4C447.9,51.9,447.4,52.7,445.8,52.9z"/>
<path class="st0" d="M421,52.9c-0.6,0.1-1.4-0.1-1.8-0.5c-3.1-3,4.2-5.5,4-1.4C423.1,51.9,422.6,52.7,421,52.9z"/>
<path class="st0" d="M396.3,52.9c-0.6,0.1-1.4-0.1-1.8-0.5c-3.1-3,4.2-5.5,4-1.4C398.3,51.9,397.8,52.7,396.3,52.9z"/>
<path class="st0" d="M371.5,52.9c-0.6,0.1-1.4-0.1-1.8-0.5c-3.1-3,4.2-5.5,4-1.4C373.6,51.9,373.1,52.7,371.5,52.9z"/>
<path class="st0" d="M346.7,52.9c-0.6,0.1-1.4-0.1-1.8-0.5c-3.1-3,4.2-5.5,4-1.4C348.8,51.9,348.3,52.7,346.7,52.9z"/>
<path class="st0" d="M322,52.9c-0.6,0.1-1.4-0.1-1.8-0.5c-3.1-3,4.2-5.5,4-1.4C324.1,51.9,323.6,52.7,322,52.9z"/>
<path class="st0" d="M297.2,52.9c-0.6,0.1-1.4-0.1-1.8-0.5c-3.1-3,4.2-5.5,4-1.4C299.3,51.9,298.8,52.7,297.2,52.9z"/>
<path class="st0" d="M272.5,52.9c-0.6,0.1-1.4-0.1-1.8-0.5c-3.1-3,4.2-5.5,4-1.4C274.5,51.9,274,52.7,272.5,52.9z"/>
<path class="st0" d="M247.7,52.9c-0.6,0.1-1.4-0.1-1.8-0.5c-3.1-3,4.2-5.5,4-1.4C249.8,51.9,249.3,52.7,247.7,52.9z"/>
<path class="st0" d="M222.9,52.9c-0.6,0.1-1.4-0.1-1.8-0.5c-3.1-3,4.2-5.5,4-1.4C225,51.9,224.5,52.7,222.9,52.9z"/>
<path class="st0" d="M198.2,52.9c-0.6,0.1-1.4-0.1-1.8-0.5c-3.1-3,4.2-5.5,4-1.4C200.3,51.9,199.8,52.7,198.2,52.9z"/>
<path class="st0" d="M173.4,52.9c-0.6,0.1-1.4-0.1-1.8-0.5c-3.1-3,4.2-5.5,4-1.4C175.5,51.9,175,52.7,173.4,52.9z"/>
<path class="st0" d="M148.7,52.9c-0.6,0.1-1.4-0.1-1.8-0.5c-3.1-3,4.2-5.5,4-1.4C150.7,51.9,150.2,52.7,148.7,52.9z"/>
<path class="st0" d="M123.9,52.9c-0.6,0.1-1.4-0.1-1.8-0.5c-3.1-3,4.2-5.5,4-1.4C126,51.9,125.5,52.7,123.9,52.9z"/>
<path class="st0" d="M99.1,52.9c-0.6,0.1-1.4-0.1-1.8-0.5c-3.1-3,4.2-5.5,4-1.4C101.2,51.9,100.7,52.7,99.1,52.9z"/>
<path class="st0" d="M74.4,52.9c-0.6,0.1-1.4-0.1-1.8-0.5c-3.1-3,4.2-5.5,4-1.4C76.5,51.9,76,52.7,74.4,52.9z"/>
<path class="st0" d="M49.6,52.9c-0.6,0.1-1.4-0.1-1.8-0.5c-3.1-3,4.2-5.5,4-1.4C51.7,51.9,51.2,52.7,49.6,52.9z"/>
<path class="st0" d="M24.9,52.9c-0.6,0.1-1.4-0.1-1.8-0.5c-3.1-3,4.2-5.5,4-1.4C26.9,51.9,26.4,52.7,24.9,52.9z"/>
<path class="st0" d="M0.1,52.8c-0.6,0.1-1.4-0.1-1.8-0.5c-3.1-3,4.2-5.6,4-1.4C2.2,51.8,1.7,52.6,0.1,52.8z"/>
<path class="st0" d="M830.1,41.2c-1.9,0.5-2.8-0.5-3-1.7c-0.3-3,4.8-3.7,4.6-0.2C831.7,40.1,831.3,40.9,830.1,41.2z"/>
<path class="st0" d="M805.3,41.2c-1.9,0.5-2.8-0.5-3-1.7c-0.3-3,4.8-3.7,4.6-0.2C806.9,40.1,806.5,40.9,805.3,41.2z"/>
<path class="st0" d="M780.5,41.2c-1.9,0.5-2.8-0.5-3-1.7c-0.3-3,4.8-3.7,4.6-0.2C782.1,40.1,781.7,40.9,780.5,41.2z"/>
<path class="st0" d="M755.8,41.2c-1.9,0.5-2.8-0.5-3-1.7c-0.3-3,4.8-3.7,4.6-0.2C757.4,40.1,757,40.9,755.8,41.2z"/>
<path class="st0" d="M731,41.2c-1.9,0.5-2.8-0.5-3-1.7c-0.3-3,4.8-3.7,4.6-0.2C732.6,40.1,732.2,40.9,731,41.2z"/>
<path class="st0" d="M706.3,41.2c-1.9,0.5-2.8-0.5-3-1.7c-0.3-3,4.8-3.7,4.6-0.2C707.9,40.1,707.5,40.9,706.3,41.2z"/>
<path class="st0" d="M681.5,41.2c-1.9,0.5-2.8-0.5-3-1.7c-0.3-3,4.8-3.7,4.6-0.2C683.1,40.1,682.7,40.9,681.5,41.2z"/>
<path class="st0" d="M656.7,41.2c-1.9,0.5-2.8-0.5-3-1.7c-0.3-3,4.8-3.7,4.6-0.2C658.3,40.1,657.9,40.9,656.7,41.2z"/>
<path class="st0" d="M632,41.2c-1.9,0.5-2.8-0.5-3-1.7c-0.3-3,4.8-3.7,4.6-0.2C633.6,40.1,633.2,40.9,632,41.2z"/>
<path class="st0" d="M607.2,41.2c-1.9,0.5-2.8-0.5-3-1.7c-0.3-3,4.8-3.7,4.6-0.2C608.8,40.1,608.4,40.9,607.2,41.2z"/>
<path class="st0" d="M582.5,41.2c-1.9,0.5-2.8-0.5-3-1.7c-0.3-3,4.8-3.7,4.6-0.2C584.1,40.1,583.7,40.9,582.5,41.2z"/>
<path class="st0" d="M557.7,41.2c-1.9,0.5-2.8-0.5-3-1.7c-0.3-3,4.8-3.7,4.6-0.2C559.3,40.1,558.9,40.9,557.7,41.2z"/>
<path class="st0" d="M532.9,41.2c-1.9,0.5-2.8-0.5-3-1.7c-0.3-3,4.8-3.7,4.6-0.2C534.5,40.1,534.1,40.9,532.9,41.2z"/>
<path class="st0" d="M508.2,41.2c-1.9,0.5-2.8-0.5-3-1.7c-0.3-3,4.8-3.7,4.6-0.2C509.8,40.1,509.4,40.9,508.2,41.2z"/>
<path class="st0" d="M483.4,41.2c-1.9,0.5-2.8-0.5-3-1.7c-0.3-3,4.8-3.7,4.6-0.2C485,40.1,484.6,40.9,483.4,41.2z"/>
<path class="st0" d="M458.7,41.2c-1.9,0.5-2.8-0.5-3-1.7c-0.3-3,4.8-3.7,4.6-0.2C460.3,40.1,459.9,40.9,458.7,41.2z"/>
<path class="st0" d="M433.9,41.2c-1.9,0.5-2.8-0.5-3-1.7c-0.3-3,4.8-3.7,4.6-0.2C435.5,40.1,435.1,40.9,433.9,41.2z"/>
<path class="st0" d="M409.1,41.2c-1.9,0.5-2.8-0.5-3-1.7c-0.3-3,4.8-3.7,4.6-0.2C410.7,40.1,410.3,40.9,409.1,41.2z"/>
<path class="st0" d="M384.4,41.2c-1.9,0.5-2.8-0.5-3-1.7c-0.3-3,4.8-3.7,4.6-0.2C386,40.1,385.6,40.9,384.4,41.2z"/>
<path class="st0" d="M359.6,41.2c-1.9,0.5-2.8-0.5-3-1.7c-0.3-3,4.8-3.7,4.6-0.2C361.2,40.1,360.8,40.9,359.6,41.2z"/>
<path class="st0" d="M334.9,41.2c-1.9,0.5-2.8-0.5-3-1.7c-0.3-3,4.8-3.7,4.6-0.2C336.5,40.1,336.1,40.9,334.9,41.2z"/>
<path class="st0" d="M310.1,41.2c-1.9,0.5-2.8-0.5-3-1.7c-0.3-3,4.8-3.7,4.6-0.2C311.7,40.1,311.3,40.9,310.1,41.2z"/>
<path class="st0" d="M285.3,41.2c-1.9,0.5-2.8-0.5-3-1.7c-0.3-3,4.8-3.7,4.6-0.2C286.9,40.1,286.5,40.9,285.3,41.2z"/>
<path class="st0" d="M260.6,41.2c-1.9,0.5-2.8-0.5-3-1.7c-0.3-3,4.8-3.7,4.6-0.2C262.2,40.1,261.8,40.9,260.6,41.2z"/>
<path class="st0" d="M235.8,41.2c-1.9,0.5-2.8-0.5-3-1.7c-0.3-3,4.8-3.7,4.6-0.2C237.4,40.1,237,40.9,235.8,41.2z"/>
<path class="st0" d="M211.1,41.2c-1.9,0.5-2.8-0.5-3-1.7c-0.3-3,4.8-3.7,4.6-0.2C212.7,40.1,212.3,40.9,211.1,41.2z"/>
<path class="st0" d="M186.3,41.2c-1.9,0.5-2.8-0.5-3-1.7c-0.3-3,4.8-3.7,4.6-0.2C187.9,40.1,187.5,40.9,186.3,41.2z"/>
<path class="st0" d="M161.5,41.2c-1.9,0.5-2.8-0.5-3-1.7c-0.3-3,4.8-3.7,4.6-0.2C163.1,40.1,162.7,40.9,161.5,41.2z"/>
<path class="st0" d="M136.8,41.2c-1.9,0.5-2.8-0.5-3-1.7c-0.3-3,4.8-3.7,4.6-0.2C138.4,40.1,138,40.9,136.8,41.2z"/>
<path class="st0" d="M112,41.2c-1.9,0.5-2.8-0.5-3-1.7c-0.3-3,4.8-3.7,4.6-0.2C113.6,40.1,113.2,40.9,112,41.2z"/>
<path class="st0" d="M87.3,41.2c-1.9,0.5-2.8-0.5-3-1.7c-0.3-3,4.8-3.7,4.6-0.2C88.9,40.1,88.5,40.9,87.3,41.2z"/>
<path class="st0" d="M62.5,41.2c-1.9,0.5-2.8-0.5-3-1.7c-0.3-3,4.8-3.7,4.6-0.2C64.1,40.1,63.7,40.9,62.5,41.2z"/>
<path class="st0" d="M37.7,41.2c-1.9,0.5-2.8-0.5-3-1.7c-0.3-3,4.8-3.7,4.6-0.2C39.3,40.1,38.9,40.9,37.7,41.2z"/>
<path class="st0" d="M13,41c-1.9,0.5-2.8-0.5-3-1.7c-0.3-3,4.8-3.7,4.6-0.2C14.6,40,14.2,40.7,13,41z"/>
<path class="st0" d="M842.4,29.6c-2.1,0.5-3-0.5-3.1-1.7c-0.5-3.4,5.3-4.2,5-0.2C844.2,28.6,843.7,29.3,842.4,29.6z"/>
<path class="st0" d="M817.7,29.6c-2.1,0.5-3-0.5-3.1-1.7c-0.5-3.4,5.3-4.2,5-0.2C819.4,28.6,819,29.3,817.7,29.6z"/>
<path class="st0" d="M792.9,29.6c-2.1,0.5-3-0.5-3.1-1.7c-0.5-3.4,5.3-4.2,5-0.2C794.7,28.6,794.2,29.3,792.9,29.6z"/>
<path class="st0" d="M768.2,29.6c-2.1,0.5-3-0.5-3.1-1.7c-0.5-3.4,5.3-4.2,4.9-0.2C769.9,28.6,769.5,29.3,768.2,29.6z"/>
<path class="st0" d="M743.4,29.6c-2.1,0.5-3-0.5-3.1-1.7c-0.5-3.4,5.3-4.2,5-0.2C745.1,28.6,744.7,29.3,743.4,29.6z"/>
<path class="st0" d="M718.6,29.6c-2.1,0.5-3-0.5-3.1-1.7c-0.5-3.4,5.3-4.2,5-0.2C720.4,28.6,719.9,29.3,718.6,29.6z"/>
<path class="st0" d="M693.9,29.6c-2.1,0.5-3-0.5-3.1-1.7c-0.5-3.4,5.3-4.2,4.9-0.2C695.6,28.6,695.2,29.3,693.9,29.6z"/>
<path class="st0" d="M669.1,29.6c-2.1,0.5-3-0.5-3.1-1.7c-0.5-3.4,5.3-4.2,5-0.2C670.9,28.6,670.4,29.3,669.1,29.6z"/>
<path class="st0" d="M644.4,29.6c-2.1,0.5-3-0.5-3.1-1.7c-0.5-3.4,5.3-4.2,5-0.2C646.1,28.6,645.7,29.3,644.4,29.6z"/>
<path class="st0" d="M619.6,29.6c-2.1,0.5-3-0.5-3.1-1.7c-0.5-3.4,5.3-4.2,4.9-0.2C621.3,28.6,620.9,29.3,619.6,29.6z"/>
<path class="st0" d="M594.8,29.6c-2.1,0.5-3-0.5-3.1-1.7c-0.5-3.4,5.3-4.2,4.9-0.2C596.6,28.6,596.1,29.3,594.8,29.6z"/>
<path class="st0" d="M570.1,29.6c-2.1,0.5-3-0.5-3.1-1.7c-0.5-3.4,5.3-4.2,5-0.2C571.8,28.6,571.4,29.3,570.1,29.6z"/>
<path class="st0" d="M545.3,29.6c-2.1,0.5-3-0.5-3.1-1.7c-0.5-3.4,5.3-4.2,5-0.2C547.1,28.6,546.6,29.3,545.3,29.6z"/>
<path class="st0" d="M520.6,29.6c-2.1,0.5-3-0.5-3.1-1.7c-0.5-3.4,5.3-4.2,4.9-0.2C522.3,28.6,521.9,29.3,520.6,29.6z"/>
<path class="st0" d="M495.8,29.6c-2.1,0.5-3-0.5-3.1-1.7c-0.5-3.4,5.3-4.2,5-0.2C497.5,28.6,497.1,29.3,495.8,29.6z"/>
<path class="st0" d="M471,29.6c-2.1,0.5-3-0.5-3.1-1.7c-0.5-3.4,5.3-4.2,4.9-0.2C472.8,28.6,472.3,29.3,471,29.6z"/>
<path class="st0" d="M446.3,29.6c-2.1,0.5-3-0.5-3.1-1.7c-0.5-3.4,5.3-4.2,4.9-0.2C448,28.6,447.6,29.3,446.3,29.6z"/>
<path class="st0" d="M421.5,29.6c-2.1,0.5-3-0.5-3.1-1.7c-0.5-3.4,5.3-4.2,4.9-0.2C423.2,28.6,422.8,29.3,421.5,29.6z"/>
<path class="st0" d="M396.8,29.6c-2.1,0.5-3-0.5-3.1-1.7c-0.5-3.4,5.3-4.2,5-0.2C398.5,28.6,398.1,29.3,396.8,29.6z"/>
<path class="st0" d="M372,29.6c-2.1,0.5-3-0.5-3.1-1.7c-0.5-3.4,5.3-4.2,4.9-0.2C373.7,28.6,373.3,29.3,372,29.6z"/>
<path class="st0" d="M347.2,29.6c-2.1,0.5-3-0.5-3.1-1.7c-0.5-3.4,5.4-4.2,5-0.2C349,28.6,348.5,29.3,347.2,29.6z"/>
<path class="st0" d="M322.5,29.6c-2.1,0.5-3-0.5-3.1-1.7c-0.5-3.4,5.4-4.2,5-0.2C324.2,28.6,323.8,29.3,322.5,29.6z"/>
<path class="st0" d="M297.7,29.6c-2.1,0.5-3-0.5-3.1-1.7c-0.5-3.4,5.3-4.2,4.9-0.2C299.4,28.6,299,29.3,297.7,29.6z"/>
<path class="st0" d="M273,29.6c-2.1,0.5-3-0.5-3.1-1.7c-0.5-3.4,5.3-4.2,4.9-0.2C274.7,28.6,274.3,29.3,273,29.6z"/>
<path class="st0" d="M248.2,29.6c-2.1,0.5-3-0.5-3.1-1.7c-0.5-3.4,5.4-4.2,5-0.2C249.9,28.6,249.5,29.3,248.2,29.6z"/>
<path class="st0" d="M223.4,29.6c-2.1,0.5-3-0.5-3.1-1.7c-0.5-3.4,5.3-4.2,4.9-0.2C225.2,28.6,224.7,29.3,223.4,29.6z"/>
<path class="st0" d="M198.7,29.6c-2.1,0.5-3-0.5-3.1-1.7c-0.5-3.4,5.4-4.2,5-0.2C200.4,28.6,200,29.3,198.7,29.6z"/>
<path class="st0" d="M173.9,29.6c-2.1,0.5-3-0.5-3.1-1.7c-0.5-3.4,5.3-4.2,4.9-0.2C175.6,28.6,175.2,29.3,173.9,29.6z"/>
<path class="st0" d="M149.2,29.6c-2.1,0.5-3-0.5-3.1-1.7c-0.5-3.4,5.4-4.2,5-0.2C150.9,28.6,150.5,29.3,149.2,29.6z"/>
<path class="st0" d="M124.4,29.6c-2.1,0.5-3-0.5-3.1-1.7c-0.5-3.4,5.3-4.2,4.9-0.2C126.1,28.6,125.7,29.3,124.4,29.6z"/>
<path class="st0" d="M99.6,29.6c-2.1,0.5-3-0.5-3.1-1.7c-0.5-3.4,5.4-4.2,5-0.2C101.4,28.6,100.9,29.3,99.6,29.6z"/>
<path class="st0" d="M74.9,29.6c-2.1,0.5-3-0.5-3.1-1.7c-0.5-3.4,5.3-4.2,5-0.2C76.6,28.6,76.2,29.3,74.9,29.6z"/>
<path class="st0" d="M50.1,29.6c-2.1,0.5-3-0.5-3.1-1.7c-0.5-3.4,5.3-4.2,4.9-0.2C51.8,28.6,51.4,29.3,50.1,29.6z"/>
<path class="st0" d="M25.4,29.6c-2.1,0.5-3-0.5-3.1-1.7c-0.5-3.4,5.3-4.2,4.9-0.2C27.1,28.6,26.7,29.3,25.4,29.6z"/>
<path class="st0" d="M0.6,29.5c-2.1,0.5-3-0.5-3.1-1.7c-0.5-3.4,5.4-4.2,5-0.2C2.3,28.4,1.9,29.2,0.6,29.5z"/>
<path class="st0" d="M830.1,18.1c-2.1,0.5-3.1-0.6-3.3-1.9c-0.5-3.6,5.7-4.3,5.3-0.2C832,16.9,831.4,17.8,830.1,18.1z"/>
<path class="st0" d="M805.3,18.1c-2.1,0.5-3.1-0.6-3.3-1.9c-0.5-3.6,5.7-4.3,5.3-0.2C807.2,16.9,806.7,17.8,805.3,18.1z"/>
<path class="st0" d="M780.5,18.1c-2.1,0.5-3.1-0.6-3.3-1.9c-0.5-3.6,5.7-4.3,5.3-0.2C782.4,16.9,781.9,17.8,780.5,18.1z"/>
<path class="st0" d="M755.8,18.1c-2.1,0.5-3.1-0.6-3.3-1.9c-0.5-3.6,5.7-4.3,5.3-0.2C757.7,16.9,757.1,17.8,755.8,18.1z"/>
<path class="st0" d="M731,18.1c-2.1,0.5-3.1-0.6-3.3-1.9c-0.5-3.6,5.7-4.3,5.3-0.2C732.9,16.9,732.4,17.8,731,18.1z"/>
<path class="st0" d="M706.3,18.1c-2.1,0.5-3.1-0.6-3.3-1.9c-0.5-3.6,5.7-4.3,5.3-0.2C708.2,16.9,707.6,17.8,706.3,18.1z"/>
<path class="st0" d="M681.5,18.1c-2.1,0.5-3.1-0.6-3.3-1.9c-0.5-3.6,5.7-4.3,5.3-0.2C683.4,16.9,682.9,17.8,681.5,18.1z"/>
<path class="st0" d="M656.7,18.1c-2.1,0.5-3.1-0.6-3.3-1.9c-0.5-3.6,5.7-4.3,5.3-0.2C658.6,16.9,658.1,17.8,656.7,18.1z"/>
<path class="st0" d="M632,18.1c-2.1,0.5-3.1-0.6-3.3-1.9c-0.5-3.6,5.7-4.3,5.3-0.2C633.9,16.9,633.3,17.8,632,18.1z"/>
<path class="st0" d="M607.2,18.1c-2.1,0.5-3.1-0.6-3.3-1.9c-0.5-3.6,5.7-4.3,5.3-0.2C609.1,16.9,608.6,17.8,607.2,18.1z"/>
<path class="st0" d="M582.5,18.1c-2.1,0.5-3.1-0.6-3.3-1.9c-0.5-3.6,5.7-4.3,5.3-0.2C584.3,16.9,583.8,17.8,582.5,18.1z"/>
<path class="st0" d="M557.7,18.1c-2.1,0.5-3.1-0.6-3.3-1.9c-0.5-3.6,5.7-4.3,5.3-0.2C559.6,16.9,559.1,17.8,557.7,18.1z"/>
<path class="st0" d="M532.9,18.1c-2.1,0.5-3.1-0.6-3.3-1.9c-0.5-3.6,5.7-4.3,5.3-0.2C534.8,16.9,534.3,17.8,532.9,18.1z"/>
<path class="st0" d="M508.2,18.1c-2.1,0.5-3.1-0.6-3.3-1.9c-0.5-3.6,5.7-4.3,5.3-0.2C510.1,16.9,509.5,17.8,508.2,18.1z"/>
<path class="st0" d="M483.4,18.1c-2.1,0.5-3.1-0.6-3.3-1.9c-0.5-3.6,5.7-4.3,5.3-0.2C485.3,16.9,484.8,17.8,483.4,18.1z"/>
<path class="st0" d="M458.7,18.1c-2.1,0.5-3.1-0.6-3.3-1.9c-0.5-3.6,5.7-4.3,5.3-0.2C460.5,16.9,460,17.8,458.7,18.1z"/>
<path class="st0" d="M433.9,18.1c-2.1,0.5-3.1-0.6-3.3-1.9c-0.5-3.6,5.7-4.3,5.3-0.2C435.8,16.9,435.2,17.8,433.9,18.1z"/>
<path class="st0" d="M409.1,18.1c-2.1,0.5-3.1-0.6-3.3-1.9c-0.5-3.6,5.7-4.3,5.3-0.2C411,16.9,410.5,17.8,409.1,18.1z"/>
<path class="st0" d="M384.4,18.1c-2.1,0.5-3.1-0.6-3.3-1.9c-0.5-3.6,5.7-4.3,5.3-0.2C386.3,16.9,385.7,17.8,384.4,18.1z"/>
<path class="st0" d="M359.6,18.1c-2.1,0.5-3.1-0.6-3.3-1.9c-0.5-3.6,5.7-4.3,5.3-0.2C361.5,16.9,361,17.8,359.6,18.1z"/>
<path class="st0" d="M334.9,18.1c-2.1,0.5-3.1-0.6-3.3-1.9c-0.5-3.6,5.7-4.3,5.3-0.2C336.7,16.9,336.2,17.8,334.9,18.1z"/>
<path class="st0" d="M310.1,18.1c-2.1,0.5-3.1-0.6-3.3-1.9c-0.5-3.6,5.7-4.3,5.3-0.2C312,16.9,311.4,17.8,310.1,18.1z"/>
<path class="st0" d="M285.3,18.1c-2.1,0.5-3.1-0.6-3.3-1.9c-0.5-3.6,5.7-4.3,5.3-0.2C287.2,16.9,286.7,17.8,285.3,18.1z"/>
<path class="st0" d="M260.6,18.1c-2.1,0.5-3.1-0.6-3.3-1.9c-0.5-3.6,5.7-4.3,5.3-0.2C262.5,16.9,261.9,17.8,260.6,18.1z"/>
<path class="st0" d="M235.8,18.1c-2.1,0.5-3.1-0.6-3.3-1.9c-0.5-3.6,5.7-4.3,5.3-0.2C237.7,16.9,237.2,17.8,235.8,18.1z"/>
<path class="st0" d="M211.1,18.1c-2.1,0.5-3.1-0.6-3.3-1.9c-0.5-3.6,5.7-4.3,5.3-0.2C212.9,16.9,212.4,17.8,211.1,18.1z"/>
<path class="st0" d="M186.3,18.1c-2.1,0.5-3.1-0.6-3.3-1.9c-0.5-3.6,5.7-4.3,5.3-0.2C188.2,16.9,187.6,17.8,186.3,18.1z"/>
<path class="st0" d="M161.5,18.1c-2.1,0.5-3.1-0.6-3.3-1.9c-0.5-3.6,5.7-4.3,5.3-0.2C163.4,16.9,162.9,17.8,161.5,18.1z"/>
<path class="st0" d="M136.8,18.1c-2.1,0.5-3.1-0.6-3.3-1.9c-0.5-3.6,5.7-4.3,5.3-0.2C138.7,16.9,138.1,17.8,136.8,18.1z"/>
<path class="st0" d="M112,18.1c-2.1,0.5-3.1-0.6-3.3-1.9c-0.5-3.6,5.7-4.3,5.3-0.2C113.9,16.9,113.4,17.8,112,18.1z"/>
<path class="st0" d="M87.3,18.1c-2.1,0.5-3.1-0.6-3.3-1.9c-0.5-3.6,5.7-4.3,5.3-0.2C89.1,16.9,88.6,17.8,87.3,18.1z"/>
<path class="st0" d="M62.5,18.1c-2.1,0.5-3.1-0.6-3.3-1.9c-0.5-3.6,5.7-4.3,5.3-0.2C64.4,16.9,63.8,17.8,62.5,18.1z"/>
<path class="st0" d="M37.7,18.1c-2.1,0.5-3.1-0.6-3.3-1.9c-0.5-3.6,5.7-4.3,5.3-0.2C39.6,16.9,39.1,17.8,37.7,18.1z"/>
<path class="st0" d="M13,17.9c-2.1,0.5-3.1-0.6-3.3-1.9c-0.5-3.6,5.7-4.3,5.3-0.2C14.9,16.8,14.3,17.6,13,17.9z"/>
</svg>
